SplineFontDB: 3.2
FontName: fontello
FullName: fontello
FamilyName: fontello
Weight: Regular
ItalicAngle: 0
UnderlinePosition: 0
UnderlineWidth: 0
Ascent: 800
Descent: 200
InvalidEm: 0
LayerCount: 2
Layer: 0 1 "Back" 1
Layer: 1 1 "Fore" 0
XUID: [1021 678 -861363000 28646]
OS2Version: 0
OS2_WeightWidthSlopeOnly: 0
OS2_UseTypoMetrics: 0
CreationTime: 1736802943
ModificationTime: 1736803244
PfmFamily: 17
TTFWeight: 400
TTFWidth: 5
LineGap: 90
VLineGap: 90
Panose: 2 0 5 3 0 0 0 0 0 0
OS2TypoAscent: 0
OS2TypoAOffset: 1
OS2TypoDescent: 0
OS2TypoDOffset: 1
OS2TypoLinegap: 90
OS2WinAscent: 0
OS2WinAOffset: 1
OS2WinDescent: 0
OS2WinDOffset: 1
HheadAscent: 0
HheadAOffset: 1
HheadDescent: 0
HheadDOffset: 1
OS2Vendor: 'PfEd'
DEI: 91125
Encoding: Original
UnicodeInterp: none
NameList: AGL For New Fonts
DisplaySize: -48
AntiAlias: 1
FitToEm: 0
WinInfo: 0 34 10
BeginChars: 33 33

StartChar: vkontakte
Encoding: 1 59392 1
Width: 1220
Flags: W
LayerCount: 2
Fore
SplineSet
0 654 m 1
 10 662 10 662 25 666 c 0
 39 670 39 670 50 670 c 2
 59 670 l 2
 69 670 69 670 83 669 c 0
 105 668 105 668 115 668 c 0
 121 668 121 668 153 670 c 0
 169 671 169 671 182 671 c 0
 195 671 195 671 205 670 c 0
 225 668 225 668 237 662 c 0
 243 659 243 659 250 649 c 0
 257 639 257 639 262 630 c 0
 267 621 267 621 273 605 c 0
 279 589 279 589 283 583 c 0
 321 501 321 501 377 420 c 0
 379 417 379 417 384 409 c 0
 389 401 389 401 393 397 c 0
 397 393 397 393 402 385 c 0
 407 377 407 377 412 374 c 0
 417 371 417 371 423 366 c 0
 429 361 429 361 434 360 c 0
 439 359 439 359 446 360 c 0
 474 365 474 365 477 477 c 0
 478 496 478 496 478 512 c 0
 478 586 478 586 463 614 c 0
 457 625 457 625 448 632 c 0
 439 639 439 639 423 644 c 0
 407 649 407 649 400 654 c 1
 414 682 414 682 450 691 c 0
 486 700 486 700 546 700 c 2
 599 700 l 1
 625 700 l 1
 652 697 l 1
 674 691 l 1
 694 682 l 1
 706 668 l 1
 715 650 715 650 717 626 c 0
 717 619 717 619 718 612 c 0
 718 592 718 592 715 560 c 0
 711 518 711 518 711 508 c 0
 708 485 708 485 708 462 c 0
 708 444 708 444 710 424 c 0
 714 380 714 380 740 363 c 1
 749 364 749 364 757 367 c 0
 765 370 765 370 772 378 c 0
 779 386 779 386 783 390 c 0
 787 394 787 394 796 406 c 0
 805 418 805 418 806 420 c 0
 853 482 853 482 900 583 c 1
 909 606 l 1
 921 632 l 1
 933 652 l 1
 948 665 l 1
 964 672 964 672 986 672 c 2
 995 672 l 2
 1015 672 1015 672 1041 670 c 0
 1073 668 1073 668 1088 668 c 0
 1097 668 1097 668 1116 669 c 0
 1135 670 1135 670 1148 671 c 0
 1161 672 1161 672 1178 670 c 0
 1195 668 1195 668 1203 664 c 0
 1211 660 1211 660 1217 651 c 0
 1220 645 1220 645 1220 638 c 0
 1220 609 1220 609 1185 551 c 0
 1168 522 1168 522 1151 499 c 0
 1134 476 1134 476 1105 441 c 0
 1076 406 1076 406 1068 394 c 0
 1066 392 1066 392 1054 376 c 0
 1042 360 1042 360 1037 352 c 0
 1032 344 1032 344 1025 330 c 0
 1018 316 1018 316 1020 303 c 0
 1020 295 1020 295 1023 288 c 0
 1026 281 1026 281 1033 273 c 0
 1040 265 1040 265 1043 261 c 0
 1046 257 1046 257 1056 248 c 0
 1066 239 1066 239 1068 237 c 0
 1139 172 1139 172 1180 120 c 0
 1220 68 1220 68 1220 45 c 0
 1220 12 1220 12 1169 4 c 0
 1143 0 1143 0 1116 0 c 0
 1095 0 1095 0 1073 3 c 0
 1053 5 1053 5 1036 5 c 0
 1010 5 1010 5 991 0 c 1
 985 0 l 1
 919 11 919 11 846 94 c 0
 842 98 842 98 829 115 c 0
 816 132 816 132 807 140 c 0
 798 148 798 148 784 157 c 0
 770 166 770 166 757 163 c 0
 734 159 734 159 727 134 c 0
 720 109 720 109 718 75 c 0
 716 41 716 41 708 26 c 0
 695 2 695 2 629 2 c 0
 601 2 601 2 563 6 c 0
 485 14 485 14 422 46 c 0
 359 78 359 78 321 114 c 0
 283 150 283 150 240 206 c 0
 136 339 136 339 43 528 c 0
 40 534 40 534 32 551 c 0
 24 568 24 568 20 576 c 0
 16 584 16 584 11 600 c 0
 6 616 6 616 3 628 c 0
 0 640 0 640 0 654 c 1
EndSplineSet
Validated: 1
EndChar

StartChar: twitter
Encoding: 2 59393 2
Width: 1230
Flags: W
LayerCount: 2
Fore
SplineSet
0 -37 m 1
 30 -40 30 -40 60 -40 c 0
 236 -40 236 -40 374 68 c 1
 292 69 292 69 227 118 c 0
 162 167 162 167 138 243 c 1
 158 239 158 239 185 239 c 0
 220 239 220 239 252 248 c 1
 164 265 164 265 107 335 c 0
 50 405 50 405 49 495 c 2
 49 498 l 1
 102 468 102 468 164 467 c 1
 112 501 112 501 82 557 c 0
 52 613 52 613 51 677 c 0
 51 745 51 745 86 804 c 1
 180 687 180 687 316 618 c 0
 452 549 452 549 606 540 c 1
 599 573 599 573 599 598 c 0
 599 702 599 702 673 776 c 0
 747 850 747 850 852 850 c 0
 961 850 961 850 1036 770 c 1
 1123 788 1123 788 1196 832 c 1
 1168 741 1168 741 1086 692 c 1
 1159 701 1159 701 1230 732 c 1
 1182 657 1182 657 1105 601 c 1
 1105 568 l 2
 1105 467 1105 467 1076 366 c 0
 1047 265 1047 265 986 172 c 0
 925 79 925 79 841 7 c 0
 757 -65 757 -65 640 -108 c 0
 523 -151 523 -151 387 -150 c 0
 178 -150 178 -150 0 -37 c 1
EndSplineSet
Validated: 33
EndChar

StartChar: pocket
Encoding: 3 59394 3
Width: 1136
Flags: W
LayerCount: 2
Fore
SplineSet
2 520 m 0
 -5 735 -5 735 14 790 c 0
 18 799 18 799 23 806 c 0
 28 813 28 813 37 818 c 0
 46 823 46 823 51 828 c 0
 56 833 56 833 68 838 c 0
 80 843 80 843 85 846 c 0
 221 846 221 846 471 848 c 0
 721 850 721 850 800 850 c 2
 894 850 l 1
 949 850 l 1
 1005 847 l 1
 1050 841 l 1
 1083 831 l 2
 1099 822 1099 822 1110 807 c 0
 1121 792 1121 792 1126 778 c 0
 1131 764 1131 764 1134 738 c 0
 1137 712 1137 712 1136 696 c 0
 1135 680 1135 680 1135 646 c 0
 1135 612 1135 612 1135 596 c 0
 1135 389 1135 389 1112 269 c 0
 1089 149 1089 149 1016 56 c 0
 946 -32 946 -32 851 -84 c 0
 756 -136 756 -136 658 -146 c 0
 560 -156 560 -156 458 -135 c 0
 356 -114 356 -114 272 -62 c 0
 188 -10 188 -10 121 72 c 0
 54 154 54 154 25 253 c 0
 10 305 10 305 2 520 c 0
234 522 m 1
 208 494 208 494 249 433 c 0
 290 372 290 372 353 309 c 0
 355 307 355 307 392 269 c 0
 429 231 429 231 446 217 c 0
 463 203 463 203 493 182 c 0
 523 161 523 161 550 153 c 0
 561 150 561 150 572 150 c 0
 583 150 583 150 592 151 c 0
 601 152 601 152 611 158 c 0
 621 164 621 164 627 165 c 0
 633 166 633 166 643 177 c 0
 653 188 653 188 655 187 c 0
 657 186 657 186 667 198 c 2
 670 201 l 2
 679 210 679 210 730 257 c 0
 781 304 781 304 816 338 c 0
 851 372 851 372 884 417 c 0
 917 462 917 462 919 492 c 1
 904 532 904 532 881 548 c 0
 858 564 858 564 830 557 c 0
 802 550 802 550 774 531 c 0
 746 512 746 512 715 483 c 0
 684 454 684 454 659 427 c 0
 634 400 634 400 610 376 c 0
 586 352 586 352 573 343 c 1
 546 359 546 359 500 403 c 0
 454 447 454 447 418 485 c 0
 382 523 382 523 345 549 c 0
 308 575 308 575 290 563 c 0
 265 548 265 548 234 522 c 1
EndSplineSet
Validated: 33
EndChar

StartChar: pinterest
Encoding: 4 59395 4
Width: 774
Flags: W
LayerCount: 2
Fore
SplineSet
0 491 m 0
 0 554 0 554 27 616 c 0
 54 678 54 678 103 731 c 0
 152 784 152 784 233 817 c 0
 314 850 314 850 411 850 c 0
 570 850 570 850 672 752 c 0
 774 654 774 654 774 521 c 0
 774 350 774 350 688 239 c 0
 602 128 602 128 464 127 c 0
 419 127 419 127 380 148 c 0
 341 169 341 169 324 199 c 1
 284 41 l 2
 279 22 279 22 271 3 c 0
 263 -16 263 -16 254 -35 c 0
 245 -54 245 -54 235 -69 c 0
 225 -84 225 -84 216 -99 c 0
 207 -114 207 -114 199 -123 c 0
 191 -132 191 -132 186 -139 c 2
 180 -147 l 2
 177 -151 177 -151 172 -150 c 0
 167 -149 167 -149 166 -144 c 0
 166 -143 166 -143 165 -130 c 0
 164 -117 164 -117 162 -103 c 0
 160 -89 160 -89 159 -65 c 0
 158 -41 158 -41 158 -21 c 0
 158 -1 158 -1 161 27 c 0
 164 55 164 55 168 75 c 0
 179 122 179 122 242 388 c 1
 234 404 234 404 229 427 c 0
 224 450 224 450 224 463 c 2
 223 478 l 1
 223 542 223 542 256 585 c 0
 289 628 289 628 334 627 c 0
 371 627 371 627 392 603 c 0
 413 579 413 579 412 541 c 0
 412 518 412 518 404 485 c 0
 396 452 396 452 381 408 c 0
 366 364 366 364 361 337 c 0
 351 292 351 292 379 259 c 0
 407 226 407 226 452 226 c 0
 531 226 531 226 583 316 c 0
 635 406 635 406 634 532 c 0
 634 629 634 629 571 691 c 0
 508 753 508 753 395 752 c 0
 269 752 269 752 191 671 c 0
 113 590 113 590 112 477 c 0
 112 410 112 410 150 364 c 0
 163 349 163 349 158 332 c 0
 156 327 156 327 152 309 c 0
 148 291 148 291 146 286 c 0
 144 275 144 275 136 272 c 0
 128 269 128 269 118 272 c 0
 59 296 59 296 30 355 c 0
 1 414 1 414 0 491 c 0
EndSplineSet
Validated: 33
EndChar

StartChar: digg
Encoding: 5 59396 5
Width: 1122
Flags: W
LayerCount: 2
Fore
SplineSet
0 152 m 1
 0 524 l 2
 0 537 0 537 13 537 c 2
 189 537 l 1
 189 666 l 2
 189 680 189 680 202 680 c 2
 300 680 l 1
 300 166 l 2
 300 152 300 152 288 152 c 2
 0 152 l 1
109 235 m 1
 176 235 l 2
 189 235 189 235 189 249 c 2
 189 455 l 1
 122 455 l 2
 109 455 109 455 109 441 c 2
 109 235 l 1
334 152 m 1
 334 524 l 2
 334 537 334 537 347 537 c 2
 445 537 l 1
 445 166 l 2
 445 152 445 152 433 152 c 2
 334 152 l 1
334 597 m 1
 334 666 l 2
 334 680 334 680 346 680 c 2
 445 680 l 1
 445 611 l 2
 445 597 445 597 433 597 c 2
 334 597 l 1
483 152 m 1
 483 524 l 2
 483 537 483 537 496 537 c 2
 784 537 l 1
 784 33 l 2
 784 20 784 20 771 20 c 2
 483 20 l 1
 484 89 l 2
 484 103 484 103 496 103 c 2
 672 103 l 1
 672 152 l 1
 483 152 l 1
593 235 m 1
 660 235 l 2
 672 235 672 235 672 249 c 2
 672 455 l 1
 605 455 l 2
 593 455 593 455 593 441 c 2
 593 235 l 1
822 89 m 2
 822 103 822 103 835 103 c 2
 1011 103 l 1
 1011 152 l 1
 822 152 l 1
 822 524 l 2
 822 537 822 537 835 537 c 2
 1122 537 l 1
 1122 33 l 2
 1122 20 1122 20 1110 20 c 2
 822 20 l 1
 822 89 l 2
931 235 m 1
 998 235 l 2
 1011 235 1011 235 1011 249 c 2
 1011 455 l 1
 944 455 l 2
 931 455 931 455 931 441 c 2
 931 235 l 1
EndSplineSet
Validated: 1
EndChar

StartChar: reddit
Encoding: 6 59397 6
Width: 1205
Flags: W
LayerCount: 2
Fore
SplineSet
0 353 m 0
 0 415 0 415 50 459 c 0
 100 503 100 503 162 503 c 0
 224 503 224 503 267 467 c 1
 272 467 l 1
 406 549 406 549 607 549 c 1
 612 553 l 1
 682 820 l 1
 924 784 l 2
 924 783 924 783 926 783 c 0
 927 783 927 783 926 784 c 1
 928 785 928 785 938 800 c 0
 948 815 948 815 952 818 c 0
 986 850 986 850 1034 850 c 0
 1083 850 1083 850 1117 818 c 0
 1151 786 1151 786 1150 736 c 0
 1149 686 1149 686 1117 652 c 0
 1085 618 1085 618 1034 617 c 0
 977 617 977 617 947 656 c 0
 917 695 917 695 917 752 c 1
 915 751 915 751 820 765 c 0
 725 779 725 779 710 782 c 2
 707 782 l 2
 705 780 705 780 691 729 c 0
 677 678 677 678 661 620 c 0
 645 562 645 562 643 556 c 2
 643 553 l 1
 648 549 l 1
 720 549 720 549 796 529 c 0
 872 509 872 509 926 471 c 2
 929 469 l 2
 930 470 930 470 931 470 c 0
 932 470 932 470 933 471 c 0
 958 489 958 489 969 496 c 0
 980 503 980 503 998 509 c 0
 1016 515 1016 515 1041 515 c 0
 1109 515 1109 515 1157 467 c 0
 1205 419 1205 419 1205 350 c 0
 1205 303 1205 303 1179 264 c 0
 1153 225 1153 225 1109 204 c 1
 1109 9 1109 9 849 -99 c 0
 808 -117 808 -117 793 -122 c 0
 761 -132 761 -132 702 -141 c 0
 643 -150 643 -150 609 -150 c 0
 489 -150 489 -150 378 -115 c 0
 376 -113 376 -113 306 -77 c 0
 211 -26 211 -26 154 39 c 0
 97 104 97 104 96 195 c 1
 91 195 l 1
 58 212 58 212 32 245 c 2
 23 257 l 1
 8 284 8 284 4 303 c 0
 0 322 0 322 0 353 c 0
34 341 m 0
 34 275 34 275 91 229 c 1
 96 288 96 288 139 345 c 0
 182 402 182 402 240 446 c 1
 203 472 203 472 158 472 c 0
 109 472 109 472 72 432 c 0
 35 392 35 392 34 341 c 0
136 195 m 0
 136 141 136 141 167 91 c 0
 198 41 198 41 247 6 c 0
 296 -29 296 -29 349 -54 c 0
 402 -79 402 -79 454 -88 c 0
 529 -102 529 -102 600 -102 c 0
 723 -102 723 -102 833 -63 c 0
 943 -24 943 -24 1018 60 c 1
 1015 60 l 1
 1045 98 1045 98 1058 129 c 0
 1071 160 1071 160 1071 201 c 0
 1071 255 1071 255 1045 304 c 0
 1019 353 1019 353 975 388 c 0
 931 423 931 423 883 449 c 0
 835 475 835 475 783 487 c 0
 698 510 698 510 602 510 c 0
 528 510 528 510 451 492 c 0
 374 474 374 474 301 438 c 0
 228 402 228 402 182 339 c 0
 136 276 136 276 136 195 c 0
322 268 m 0
 322 305 322 305 345 328 c 0
 368 351 368 351 404 350 c 0
 440 349 440 349 466 328 c 0
 492 307 492 307 491 268 c 0
 491 232 491 232 466 208 c 0
 441 184 441 184 404 184 c 0
 367 184 367 184 345 208 c 0
 323 232 323 232 322 268 c 0
358 104 m 1
 402 104 l 1
 427 59 427 59 482 36 c 0
 537 13 537 13 593 12 c 0
 651 12 651 12 703 36 c 0
 755 60 755 60 787 104 c 1
 828 104 l 1
 803 42 803 42 735 8 c 0
 667 -26 667 -26 593 -26 c 0
 521 -26 521 -26 452 9 c 0
 383 44 383 44 358 104 c 1
694 268 m 0
 694 306 694 306 717 328 c 0
 740 350 740 350 778 350 c 0
 812 350 812 350 836 326 c 0
 860 302 860 302 860 268 c 0
 860 234 860 234 836 209 c 0
 812 184 812 184 778 184 c 0
 741 184 741 184 718 208 c 0
 695 232 695 232 694 268 c 0
949 736 m 0
 949 701 949 701 974 676 c 0
 999 651 999 651 1034 651 c 0
 1070 651 1070 651 1093 676 c 0
 1116 701 1116 701 1116 736 c 0
 1116 770 1116 770 1092 794 c 0
 1068 818 1068 818 1034 818 c 0
 1000 818 1000 818 975 794 c 0
 950 770 950 770 949 736 c 0
963 455 m 1
 1018 419 1018 419 1058 363 c 0
 1098 307 1098 307 1114 243 c 1
 1173 286 1173 286 1173 339 c 0
 1173 397 1173 397 1138 439 c 0
 1103 481 1103 481 1045 481 c 0
 1000 481 1000 481 963 455 c 1
EndSplineSet
Validated: 33
EndChar

StartChar: blogger
Encoding: 7 59398 7
Width: 996
Flags: W
LayerCount: 2
Fore
SplineSet
0 165 m 2
 0 534 l 2
 0 664 0 664 93 757 c 0
 186 850 186 850 316 850 c 2
 537 850 l 1
 602 842 602 842 676 793 c 0
 750 744 750 744 780 678 c 0
 781 676 781 676 785 669 c 0
 789 662 789 662 790 659 c 0
 791 656 791 656 794 649 c 0
 797 642 797 642 798 637 c 0
 799 632 799 632 801 621 c 0
 803 610 803 610 805 599 c 0
 807 588 807 588 809 570 c 0
 818 500 818 500 835 485 c 0
 849 472 849 472 906 471 c 0
 963 470 963 470 971 463 c 2
 985 452 l 1
 993 435 l 1
 996 421 l 1
 994 165 l 2
 993 35 993 35 901 -58 c 0
 809 -151 809 -151 679 -150 c 2
 316 -150 l 2
 186 -150 186 -150 93 -58 c 0
 0 34 0 34 0 165 c 2
259 170 m 0
 259 145 259 145 277 128 c 0
 295 111 295 111 320 110 c 2
 676 110 l 2
 701 110 701 110 719 128 c 0
 737 146 737 146 736 170 c 0
 735 194 735 194 719 213 c 0
 703 232 703 232 676 230 c 2
 320 230 l 2
 295 230 295 230 277 213 c 0
 259 196 259 196 259 170 c 0
259 532 m 0
 259 507 259 507 277 489 c 0
 295 471 295 471 320 471 c 2
 495 471 l 2
 520 471 520 471 538 489 c 0
 556 507 556 507 555 532 c 0
 554 557 554 557 538 575 c 0
 522 593 522 593 495 592 c 2
 320 592 l 2
 295 592 295 592 277 575 c 0
 259 558 259 558 259 532 c 0
EndSplineSet
Validated: 33
EndChar

StartChar: evernote
Encoding: 8 59399 8
Width: 837
Flags: W
LayerCount: 2
Fore
SplineSet
0 541 m 0
 0 581 0 581 15 599 c 0
 24 613 24 613 41 620 c 0
 59 629 59 629 88 629 c 2
 182 629 l 2
 197 629 197 629 208 640 c 0
 219 651 219 651 219 666 c 0
 219 687 219 687 218 710 c 2
 218 769 l 2
 218 794 218 794 230 813 c 0
 245 834 245 834 280 844 c 0
 291 850 291 850 333 850 c 2
 352 850 l 2
 411 848 411 848 450 833 c 0
 488 817 488 817 495 771 c 1
 521 772 521 772 543 772 c 0
 596 772 596 772 632 767 c 0
 729 755 729 755 761 743 c 0
 803 730 803 730 814 676 c 0
 824 621 824 621 832 466 c 0
 837 377 837 377 837 319 c 0
 837 275 837 275 834 248 c 0
 818 76 818 76 791 -6 c 0
 777 -48 777 -48 763 -75 c 0
 749 -102 749 -102 736 -117 c 0
 723 -132 723 -132 699 -140 c 0
 675 -148 675 -148 657 -149 c 0
 639 -150 639 -150 598 -150 c 0
 490 -150 490 -150 453 -125 c 0
 416 -100 416 -100 415 -18 c 0
 415 27 415 27 425 54 c 0
 435 81 435 81 458 91 c 0
 481 101 481 101 504 104 c 0
 519 105 519 105 544 105 c 2
 572 105 l 2
 576 105 576 105 578 104 c 0
 580 103 580 103 578 99 c 0
 576 95 576 95 576 91 c 0
 576 87 576 87 573 80 c 0
 570 73 570 73 571 67 c 0
 571 58 571 58 573 49 c 0
 575 40 575 40 574 37 c 0
 573 34 573 34 567 34 c 2
 547 34 l 1
 537 34 l 1
 527 32 l 1
 519 30 l 1
 511 26 l 1
 505 20 l 1
 501 11 l 1
 500 -1 l 2
 500 -15 500 -15 504 -24 c 0
 508 -33 508 -33 512 -38 c 0
 516 -43 516 -43 530 -45 c 0
 544 -47 544 -47 552 -47 c 2
 584 -47 l 2
 641 -47 641 -47 657 -34 c 0
 673 -21 673 -21 673 30 c 0
 673 106 673 106 655 133 c 0
 637 160 637 160 598 164 c 0
 510 173 510 173 479 184 c 0
 426 204 426 204 426 303 c 0
 426 305 426 305 424 305 c 0
 422 305 422 305 421 303 c 0
 421 236 421 236 403 183 c 2
 395 159 l 2
 384 134 384 134 358 133 c 2
 352 133 l 2
 328 133 328 133 298 141 c 1
 171 157 171 157 100 188 c 0
 76 199 76 199 63 228 c 0
 46 263 46 263 28 357 c 0
 10 451 10 451 4 490 c 0
 0 523 0 523 0 541 c 0
6 660 m 1
 6 662 l 1
 189 842 l 2
 189 843 189 843 190 843 c 1
 187 837 l 2
 176 817 176 817 176 789 c 0
 176 767 176 767 177 686 c 0
 177 676 177 676 167 676 c 2
 74 676 l 2
 40 676 40 676 15 665 c 0
 10 662 10 662 6 660 c 1
574 370 m 1
 595 373 595 373 620 373 c 0
 665 372 665 372 701 355 c 1
 701 440 701 440 640 442 c 2
 637 442 l 2
 607 442 607 442 593 422 c 0
 578 401 578 401 574 370 c 1
EndSplineSet
Validated: 1
EndChar

StartChar: linkedin
Encoding: 9 59400 9
Width: 1036
Flags: W
LayerCount: 2
Fore
SplineSet
0 730 m 0
 0 780 0 780 35 813 c 0
 70 846 70 846 126 845 c 0
 181 845 181 845 215 813 c 0
 250 780 250 780 250 727 c 0
 250 679 250 679 216 647 c 0
 181 614 181 614 124 614 c 2
 123 614 l 2
 68 614 68 614 34 647 c 0
 0 680 0 680 0 730 c 0
13 -145 m 1
 13 523 l 1
 235 523 l 1
 235 -145 l 1
 13 -145 l 1
358 -145 m 1
 580 -145 l 1
 580 228 l 2
 580 263 580 263 588 282 c 0
 602 316 602 316 631 340 c 0
 660 364 660 364 702 363 c 0
 814 363 814 363 814 212 c 2
 814 -145 l 1
 1036 -145 l 1
 1036 238 l 2
 1036 386 1036 386 966 463 c 0
 896 540 896 540 781 539 c 0
 652 539 652 539 580 428 c 1
 580 426 l 1
 579 426 l 1
 580 428 l 1
 580 523 l 1
 358 523 l 1
 360 491 360 491 360 324 c 0
 360 157 360 157 358 -145 c 1
EndSplineSet
Validated: 37
EndChar

StartChar: facebook
Encoding: 10 59401 10
Width: 538
Flags: W
LayerCount: 2
Fore
SplineSet
0 313 m 1
 0 504 l 1
 154 504 l 1
 154 600 l 2
 154 704 154 704 222 777 c 0
 290 850 290 850 385 850 c 2
 538 850 l 1
 538 659 l 1
 385 659 l 2
 370 659 370 659 358 643 c 0
 346 627 346 627 346 602 c 2
 346 504 l 1
 538 504 l 1
 538 313 l 1
 346 313 l 1
 346 -150 l 1
 154 -150 l 1
 154 313 l 1
 0 313 l 1
EndSplineSet
Validated: 1
EndChar

StartChar: tumblr
Encoding: 11 59402 11
Width: 616
Flags: W
LayerCount: 2
Fore
SplineSet
0 440 m 1
 0 582 l 1
 60 602 60 602 101 637 c 0
 142 670 142 670 168 723 c 0
 194 774 194 774 203 850 c 1
 346 850 l 1
 346 597 l 1
 583 597 l 1
 583 440 l 1
 346 440 l 1
 346 184 l 2
 346 98 346 98 355 72 c 0
 364 48 364 48 389 33 c 0
 423 13 423 13 465 13 c 0
 542 13 542 13 616 62 c 1
 616 -95 l 1
 553 -126 553 -126 500 -138 c 0
 448 -150 448 -150 388 -150 c 0
 320 -150 320 -150 266 -133 c 0
 211 -114 211 -114 177 -83 c 0
 141 -52 141 -52 125 -15 c 0
 111 19 111 19 111 90 c 2
 111 440 l 1
 0 440 l 1
EndSplineSet
Validated: 1
EndChar

StartChar: wordpress
Encoding: 12 59403 12
Width: 1000
Flags: W
LayerCount: 2
Fore
SplineSet
0 350 m 0
 0 486 0 486 67 601 c 0
 134 716 134 716 249 783 c 0
 364 850 364 850 500 850 c 0
 636 850 636 850 751 783 c 0
 866 716 866 716 933 601 c 0
 1000 486 1000 486 1000 350 c 0
 1000 214 1000 214 933 99 c 0
 866 -16 866 -16 751 -83 c 0
 636 -150 636 -150 500 -150 c 0
 364 -150 364 -150 249 -83 c 0
 134 -16 134 -16 67 99 c 0
 0 214 0 214 0 350 c 0
39 350 m 0
 39 215 39 215 111 103 c 0
 183 -9 183 -9 299 -65 c 1
 79 538 l 1
 39 449 39 449 39 350 c 0
114 603 m 1
 144 603 l 2
 192 603 192 603 267 609 c 0
 279 610 279 610 285 601 c 0
 291 592 291 592 286 582 c 0
 281 572 281 572 270 571 c 2
 217 566 l 1
 385 67 l 1
 486 369 l 1
 414 566 l 1
 390 569 390 569 366 571 c 0
 354 572 354 572 350 582 c 0
 346 592 346 592 352 601 c 0
 358 610 358 610 369 609 c 2
 490 603 l 2
 539 603 539 603 613 609 c 0
 625 610 625 610 631 601 c 0
 637 592 637 592 632 582 c 0
 627 572 627 572 616 571 c 2
 564 566 l 1
 730 70 l 1
 776 224 l 2
 812 341 812 341 812 373 c 0
 812 437 812 437 773 501 c 0
 771 504 771 504 761 522 c 0
 751 540 751 540 747 546 c 0
 743 552 743 552 738 565 c 0
 733 578 733 578 730 588 c 0
 727 598 727 598 728 609 c 0
 728 642 728 642 751 667 c 0
 774 692 774 692 806 691 c 0
 807 691 807 691 809 691 c 0
 811 691 811 691 812 690 c 1
 681 811 681 811 500 811 c 0
 381 811 381 811 279 755 c 0
 177 699 177 699 114 603 c 1
370 -93 m 1
 432 -111 432 -111 500 -111 c 0
 580 -111 580 -111 653 -85 c 1
 650 -79 l 1
 508 310 l 1
 370 -93 l 1
732 -49 m 1
 837 12 837 12 899 119 c 0
 961 226 961 226 961 350 c 0
 961 470 961 470 905 571 c 1
 908 550 908 550 908 524 c 0
 908 461 908 461 873 359 c 2
 732 -49 l 1
EndSplineSet
Validated: 37
EndChar

StartChar: buffer
Encoding: 13 59404 13
Width: 979
Flags: W
LayerCount: 2
Fore
SplineSet
0 88 m 1
 11 103 11 103 32 114 c 0
 53 125 53 125 81 134 c 0
 109 143 109 143 121 149 c 1
 140 149 140 149 155 145 c 0
 170 141 170 141 188 130 c 0
 206 119 206 119 213 117 c 0
 260 96 260 96 473 -2 c 1
 492 -6 492 -6 509 -2 c 0
 526 2 526 2 548 16 c 0
 570 30 570 30 572 30 c 0
 592 39 592 39 649 65 c 0
 706 91 706 91 736 104 c 0
 740 106 740 106 778 125 c 0
 816 144 816 144 838 149 c 0
 851 151 851 151 866 148 c 0
 881 145 881 145 889 141 c 0
 897 137 897 137 912 128 c 0
 927 119 927 119 930 117 c 0
 933 115 933 115 946 111 c 0
 959 107 959 107 964 103 c 0
 969 99 969 99 975 92 c 0
 978 88 978 88 979 78 c 1
 969 65 969 65 948 54 c 0
 927 43 927 43 897 32 c 0
 867 21 867 21 857 16 c 0
 814 -4 814 -4 729 -46 c 0
 644 -88 644 -88 600 -107 c 0
 593 -110 593 -110 579 -119 c 0
 565 -128 565 -128 556 -132 c 0
 547 -136 547 -136 530 -143 c 0
 513 -150 513 -150 503 -150 c 0
 493 -150 493 -150 473 -148 c 1
 209 -25 l 2
 203 -22 203 -22 177 -11 c 0
 151 0 151 0 126 11 c 0
 101 22 101 22 72 35 c 0
 43 48 43 48 26 59 c 0
 9 70 9 70 4 75 c 0
 0 79 0 79 0 88 c 1
0 356 m 1
 11 371 11 371 32 381 c 0
 53 391 53 391 82 401 c 0
 111 411 111 411 123 416 c 1
 142 416 142 416 157 412 c 0
 172 408 172 408 192 397 c 0
 212 386 212 386 217 383 c 0
 259 364 259 364 344 325 c 0
 429 286 429 286 471 266 c 0
 490 261 490 261 508 266 c 0
 526 271 526 271 547 283 c 0
 568 295 568 295 572 297 c 0
 640 329 640 329 732 369 c 0
 743 374 743 374 764 386 c 0
 785 398 785 398 802 405 c 0
 819 412 819 412 838 416 c 0
 854 419 854 419 870 415 c 0
 886 411 886 411 907 398 c 0
 928 385 928 385 930 385 c 0
 935 382 935 382 946 379 c 0
 957 376 957 376 964 371 c 0
 971 366 971 366 975 360 c 0
 978 355 978 355 979 346 c 1
 969 332 969 332 948 321 c 0
 927 310 927 310 895 298 c 0
 863 286 863 286 854 282 c 0
 806 259 806 259 719 217 c 0
 632 175 632 175 596 158 c 0
 589 155 589 155 570 144 c 0
 551 133 551 133 541 129 c 0
 531 125 531 125 509 119 c 0
 487 113 487 113 473 119 c 0
 259 220 259 220 213 241 c 0
 207 244 207 244 169 260 c 0
 131 276 131 276 100 290 c 0
 69 304 69 304 38 320 c 0
 7 336 7 336 4 342 c 0
 0 346 0 346 0 356 c 1
0 623 m 1
 10 638 10 638 32 650 c 0
 54 662 54 662 84 672 c 0
 114 682 114 682 125 688 c 2
 473 850 l 1
 503 850 503 850 527 843 c 0
 551 836 551 836 583 817 c 0
 615 798 615 798 623 795 c 0
 662 777 662 777 740 741 c 0
 818 705 818 705 857 686 c 0
 861 684 861 684 894 671 c 0
 927 658 927 658 948 647 c 0
 969 636 969 636 975 627 c 0
 978 623 978 623 979 614 c 1
 970 601 970 601 953 592 c 0
 936 583 936 583 910 573 c 0
 884 563 884 563 875 559 c 0
 828 537 828 537 735 493 c 0
 642 449 642 449 596 426 c 0
 590 423 590 423 576 415 c 0
 562 407 562 407 553 403 c 0
 544 399 544 399 528 392 c 0
 512 385 512 385 501 386 c 0
 490 387 490 387 473 387 c 1
 228 501 228 501 217 506 c 0
 213 508 213 508 154 534 c 0
 95 560 95 560 52 580 c 0
 9 600 9 600 4 610 c 0
 0 614 0 614 0 623 c 1
EndSplineSet
Validated: 33
EndChar

StartChar: instapaper
Encoding: 14 59405 14
Width: 489
Flags: W
LayerCount: 2
Fore
SplineSet
0 -117 m 1
 102 -111 102 -111 130 -90 c 0
 160 -69 160 -69 160 17 c 2
 160 683 l 2
 160 765 160 765 130 789 c 0
 102 812 102 812 0 817 c 1
 0 845 l 1
 489 845 l 1
 489 817 l 1
 387 813 387 813 358 789 c 0
 328 765 328 765 328 683 c 2
 328 17 l 2
 328 -69 328 -69 358 -90 c 0
 388 -111 388 -111 489 -117 c 1
 489 -145 l 1
 0 -145 l 1
 0 -117 l 1
EndSplineSet
Validated: 1
EndChar

StartChar: moimir
Encoding: 15 59406 15
Width: 1000
Flags: W
LayerCount: 2
Fore
SplineSet
265 635 m 0
 228 598 228 598 249 550 c 0
 270 502 270 502 324 502 c 0
 378 502 378 502 399 550 c 0
 420 598 420 598 383 635 c 0
 360 658 360 658 324 658 c 0
 290 660 290 660 265 635 c 0
626 641 m 0
 594 609 594 609 601 565 c 0
 608 521 608 521 648 506 c 0
 679 493 679 493 704.5 504.5 c 0
 730 516 730 516 745.5 536 c 0
 761 556 761 556 759.5 584.5 c 0
 758 613 758 613 736 635 c 0
 715 657 715 657 680 658.5 c 0
 645 660 645 660 626 641 c 0
157 332 m 0
 132 301 132 301 86.5 218.5 c 0
 41 136 41 136 41 120 c 0
 41 98 41 98 55 84 c 0
 95 44 95 44 141 117 c 2
 171 164 l 1
 224 124 l 2
 331 41 331 41 500 41 c 0
 670 41 670 41 777 124 c 2
 830 164 l 1
 860 117 l 2
 906 44 906 44 946 84 c 0
 963 101 963 101 956 130.5 c 0
 949 160 949 160 912 226 c 0
 854 326 854 326 831 344.5 c 0
 808 363 808 363 777 334 c 0
 759 314 759 314 765 283 c 0
 774 241 774 241 718 201 c 0
 662 161 662 161 569 141 c 0
 497 126 497 126 414 144.5 c 0
 331 163 331 163 278.5 202.5 c 0
 226 242 226 242 235 283 c 0
 243 315 243 315 224 334 c 0
 189 368 189 368 157 332 c 0
EndSplineSet
Validated: 41
EndChar

StartChar: email
Encoding: 16 59407 16
Width: 1113
Flags: W
LayerCount: 2
Fore
SplineSet
0 28 m 2
 0 672 l 2
 0 680 0 680 2 690 c 1
 462 230 l 2
 501 191 501 191 557 191 c 0
 612 191 612 191 651 230 c 2
 1111 690 l 1
 1113 681 1113 681 1113 672 c 2
 1113 28 l 2
 1113 -9 1113 -9 1087 -34 c 0
 1061 -59 1061 -59 1025 -60 c 2
 88 -60 l 2
 52 -60 52 -60 26 -34 c 0
 0 -8 0 -8 0 28 c 2
63 756 m 1
 76 760 76 760 88 760 c 2
 1025 760 l 2
 1037 760 1037 760 1050 756 c 1
 587 293 l 2
 574 281 574 281 556 281 c 0
 538 281 538 281 526 293 c 2
 63 756 l 1
EndSplineSet
Validated: 1
EndChar

StartChar: baidu
Encoding: 17 59408 17
Width: 1000
Flags: W
LayerCount: 2
Fore
SplineSet
215 323 m 0
 309 343 309 343 293 480 c 0
 289 514 289 514 257 548 c 0
 225 582 225 582 183 579 c 0
 122.064212141 573.3126598 122.064212141 573.3126598 101.087396893 484.64055549 c 0
 97 462 97 462 97 462 c 1
 87 414 87 414 119.5 361.5 c 0
 152 309 152 309 215 323 c 0
389 511 m 0
 428 511 428 511 455.5 550 c 0
 483 589 483 589 483 645 c 0
 483 701 483 701 455.5 740 c 0
 428 779 428 779 389 779 c 0
 351 779 351 779 323 739.5 c 0
 295 700 295 700 295 645 c 0
 295 590 295 590 323 550.5 c 0
 351 511 351 511 389 511 c 0
613 503 m 0
 661 496 661 496 694.5 535 c 0
 728 574 728 574 736 624 c 0
 743 665 743 665 716 706.5 c 0
 689 748 689 748 652 756 c 0
 617 765 617 765 578.5 722 c 0
 540 679 540 679 535 637 c 0
 529 584 529 584 547 546.5 c 0
 565 509 565 509 613 503 c 0
888 408 m 0
 888 440 888 440 862.5 478 c 0
 837 516 837 516 783 516 c 0
 689 516 689 516 689 385 c 0
 689 360 689 360 691.5 343 c 0
 694 326 694 326 703.5 305.5 c 0
 713 285 713 285 736.5 274 c 0
 760 263 760 263 796 264 c 0
 813 264 813 264 826.5 268.5 c 0
 840 273 840 273 849.5 280.5 c 0
 859 288 859 288 866 296.5 c 0
 873 305 873 305 877 317 c 0
 881 329 881 329 883.5 338 c 0
 886 347 886 347 887 359.5 c 0
 888 372 888 372 888.5 379 c 0
 889 386 889 386 888.5 396.5 c 0
 888 407 888 407 888 408 c 0
783 172 m 0
 771 181 771 181 751.5 197.5 c 0
 732 214 732 214 686.5 259.5 c 0
 641 305 641 305 613 345 c 1
 583 392 583 392 545 412 c 0
 507 432 507 432 473 426 c 0
 439 420 439 420 411 401.5 c 0
 383 383 383 383 367 356 c 0
 349 326 349 326 323.5 299 c 0
 298 272 298 272 277 254.5 c 0
 256 237 256 237 255 235 c 0
 232.5 217 l 0
 210 199 210 199 190 178 c 0
 170 157 170 157 157 119 c 0
 144 81 144 81 153 40 c 0
 161 6 161 6 176 -18 c 0
 191 -42 191 -42 207 -53 c 0
 223 -64 223 -64 238.5 -70 c 0
 254 -76 254 -76 263.5 -76.5 c 0
 273 -77 l 1
 343 -84 343 -84 423 -66 c 0
 465 -58 465 -58 498 -59 c 0
 531 -60 531 -60 552 -65.5 c 0
 573 -71 l 1
 577 -72 577 -72 584 -74 c 0
 591 -76 591 -76 611.5 -80.5 c 0
 632 -85 632 -85 651.5 -86.5 c 0
 671 -88 671 -88 696.5 -86 c 0
 722 -84 722 -84 743 -77 c 0
 764 -70 764 -70 783 -53.5 c 0
 802 -37 802 -37 813 -12 c 0
 855.187677221 88.0923322306 855.187677221 88.0923322306 796.66962763 158.144161718 c 0
 783 172 783 172 783 172 c 1024
EndSplineSet
Validated: 524331
EndChar

StartChar: livejournal
Encoding: 18 59409 18
Width: 1000
Flags: W
LayerCount: 2
Fore
SplineSet
532 786 m 0
 659 786 659 786 767 723.5 c 0
 875 661 875 661 937.5 553 c 0
 1000 445 1000 445 1000 318 c 0
 1000 191 1000 191 937.5 83 c 0
 875 -25 875 -25 767 -88 c 0
 659 -151 659 -151 532 -151 c 0
 338 -151 338 -151 200.5 -13.5 c 0
 63 124 63 124 63 318 c 0
 63 411 63 411 103 504 c 1
 103 504 l 1
 0 607 l 1
 35 689 35 689 98 752 c 0
 161 815 161 815 243 851 c 1
 243 851 l 1
 346 748 l 1
 433 786 433 786 532 786 c 0
754 238 m 1
 655 194 655 194 613 96 c 1
 791 59 l 1
 754 238 l 1
484 123 m 1
 519 205 519 205 582 268.5 c 0
 645 332 645 332 727 367 c 1
 727 367 l 1
 346 748 l 1
 346 748 l 1
 264 712 264 712 201 649 c 0
 138 586 138 586 103 504 c 1
 484 123 l 1
EndSplineSet
Validated: 5
EndChar

StartChar: viber
Encoding: 19 59410 19
Width: 1000
Flags: W
LayerCount: 2
Fore
SplineSet
956 273 m 0
 951 230 951 230 938 193 c 0
 925 156 925 156 910.5 131 c 0
 896 106 896 106 875 84.5 c 0
 854 63 854 63 836.5 51 c 0
 819 39 819 39 797 28.5 c 0
 775 18 775 18 762.5 14 c 0
 750 10 750 10 733 5.5 c 0
 716 1 716 1 715 1 c 0
 702 -4 702 -4 668 -10 c 0
 634 -16 634 -16 565.5 -22 c 0
 497 -28 497 -28 423 -21 c 1
 414 -31 414 -31 366 -85 c 0
 361 -91 361 -91 351.5 -101 c 0
 342 -111 342 -111 338 -115.5 c 0
 334 -120 334 -120 325.5 -127.5 c 0
 317 -135 317 -135 313 -136 c 0
 309 -137 309 -137 300 -140 c 0
 291 -143 291 -143 285 -138 c 0
 273 -134 273 -134 266.5 -122 c 0
 260 -110 260 -110 260 -100 c 0
 260 -90 l 1
 260 9 l 1
 260 9 l 1
 205 24 205 24 163.5 54 c 0
 122 84 122 84 99 120.5 c 0
 76 157 76 157 60.5 200.5 c 0
 45 244 45 244 41.5 285.5 c 0
 38 327 38 327 35.5 367.5 c 0
 33 408 33 408 36 439 c 0
 39 645 39 645 133 740 c 1
 168 772 168 772 221 794 c 0
 274 816 274 816 323.5 825 c 0
 373 834 373 834 418 838 c 0
 463 842 463 842 490.5 841 c 0
 518 840 l 1
 617 840 617 840 698 819 c 0
 779 798 779 798 810 780 c 0
 841 762 841 762 860 745 c 0
 924 690 924 690 951 570 c 0
 978 450 978 450 956 273 c 0
809 695 m 0
 794 709 794 709 765 723.5 c 0
 736 738 736 738 667 754 c 0
 598 770 598 770 514 770 c 1
 505 771 505 771 489.5 771 c 0
 474 771 474 771 430.5 768.5 c 0
 387 766 387 766 348 759 c 0
 309 752 309 752 263 733.5 c 0
 217 715 217 715 187 688 c 0
 109 612 109 612 106 436 c 0
 103 410 103 410 105 376 c 0
 107 342 107 342 109 307 c 0
 111 272 111 272 123 235 c 0
 135 198 135 198 153 167.5 c 0
 171 137 171 137 205.5 111.5 c 0
 240 86 240 86 287 73 c 1
 287 73 l 1
 286 -78 286 -78 286 -92 c 0
 286 -106 286 -106 293 -109 c 0
 301 -109 301 -109 307 -103 c 0
 337.910292077 -71.09043319 337.910292077 -71.09043319 438 49 c 1
 578 40 578 40 689 70 c 0
 691 71 691 71 707 74.5 c 0
 723 78 723 78 736 83 c 0
 749 88 749 88 770 97.5 c 0
 791 107 791 107 807.5 123 c 0
 824 139 824 139 841 161 c 0
 858 183 858 183 870 216.5 c 0
 882 250 882 250 887 291 c 0
 905 440 905 440 883.5 544.5 c 0
 862 649 862 649 809 695 c 0
593 430 m 0
 590 502 590 502 519 507 c 1024
672 424 m 0
 673 491 673 491 632 537 c 0
 591 582 591 582 515 588 c 1024
778 430 m 0
 778 548 778 548 708 616 c 0
 637 684 637 684 535 685 c 1024
375 440 m 1
 373 458 373 458 385 467 c 2
 408 485 l 2
 418 492 418 492 420.5 506 c 0
 423 520 423 520 415 536 c 0
 403 560 403 560 386 582 c 0
 352 624 l 2
 335 646 335 646 306 632 c 1
 306 632 l 1
 283 618 283 618 259 593 c 1
 259 593 l 1
 243 574 243 574 240 554 c 0
 240 549 l 0
 240 544 240 544 242 532 c 1
 243 532 l 1
 255 493 255 493 292 426 c 0
 322 373 322 373 351 336 c 0
 373 310 373 310 387 296 c 2
 388 295 l 2
 390 293 l 1
 390 293 l 1
 390 293 l 1
 390 292 390 292 391 292 c 2
 392 291 l 2
 415 268 415 268 432 255 c 0
 471 223 471 223 522 196 c 0
 594 156 594 156 628 147 c 1
 629 146 l 2
 634 144 634 144 645 144 c 0
 651 144 l 0
 670 147 670 147 689 163 c 0
 690 163 l 1
 713 185 713 185 728 210 c 1
 728 210 l 1
 742 239 742 239 720 256 c 2
 692 280 692 280 678 290 c 0
 672 294 672 294 633 319 c 0
 617 327 617 327 603 324 c 0
 589 321 589 321 582 312 c 2
 563 289 l 2
 559 284 559 284 552.5 281.5 c 0
 546 279 546 279 541 279 c 0
 536 279 l 1
 500 288 500 288 470.5 308 c 0
 441 328 441 328 424 350 c 0
 407 372 407 372 395.5 392.5 c 0
 384 413 384 413 379.5 426.5 c 0
 375 440 l 1
EndSplineSet
Validated: 524331
EndChar

StartChar: line
Encoding: 20 59411 20
Width: 1000
Flags: W
LayerCount: 2
Fore
SplineSet
979 418 m 0
 979 578 979 578 838.5 692 c 0
 698 806 698 806 500 806 c 0
 370 806 370 806 260 754 c 0
 150 702 150 702 86 612.5 c 0
 22 523 22 523 22 418 c 0
 22 274 22 274 135.5 166 c 0
 249 58 249 58 422 35 c 0
 459 25 459 25 464 11 c 0
 470 -3 470 -3 465 -32 c 2
 460 -66 460 -66 459 -73 c 0
 458 -78 458 -78 458 -79.5 c 0
 458 -81 458 -81 457.5 -87 c 0
 457 -93 457 -93 458 -95.5 c 0
 459 -98 459 -98 462 -101.5 c 0
 465 -105 465 -105 469.5 -105.5 c 0
 474 -106 474 -106 482 -105 c 0
 490 -104 490 -104 500 -99 c 0
 552 -78 552 -78 681 12 c 0
 810 102 810 102 876 179 c 1
 876 179 l 1
 979 292 979 292 979 418 c 0
340 303 m 2
 340 294 340 294 331 294 c 2
 197 294 l 1
 197 294 l 1
 193 294 193 294 190 297 c 1
 190 297 l 1
 190 297 l 1
 187 300 187 300 187 303 c 1
 187 303 l 1
 187 512 l 2
 187 521 187 521 197 521 c 2
 230 521 l 2
 240 521 240 521 240 512 c 2
 240 346 l 1
 331 346 l 2
 340 346 340 346 340 337 c 2
 340 303 l 2
421 303 m 2
 421 294 421 294 412 294 c 2
 378 294 l 2
 369 294 369 294 369 303 c 2
 369 512 l 2
 369 521 369 521 378 521 c 2
 412 521 l 2
 421 521 421 521 421 512 c 2
 421 303 l 2
652 303 m 2
 652 294 652 294 643 294 c 2
 609 294 l 2
 607 294 l 1
 607 294 l 1
 606 295 l 1
 606 295 l 1
 605 295 l 1
 605 295 l 1
 604 295 l 1
 604 296 l 1
 604 296 l 1
 603 296 603 296 601 298 c 2
 506 427 l 1
 506 303 l 2
 506 294 506 294 496 294 c 2
 463 294 l 2
 454 294 454 294 454 303 c 2
 454 512 l 2
 454 521 454 521 463 521 c 2
 496 521 l 2
 497 521 l 1
 497 521 l 1
 498 521 l 1
 498 521 l 1
 499 521 l 1
 499 521 l 1
 500 521 l 1
 500 520 l 1
 500 520 l 1
 501 520 l 1
 501 520 l 1
 501 520 l 1
 502 519 l 1
 502 519 l 1
 503 519 l 1
 503 519 l 1
 503 518 l 1
 504 518 l 1
 504 517 l 1
 600 388 l 1
 600 512 l 2
 600 521 600 521 609 521 c 2
 643 521 l 2
 652 521 652 521 652 512 c 2
 652 303 l 2
837 478 m 2
 837 469 837 469 828 469 c 2
 737 469 l 1
 737 434 l 1
 828 434 l 2
 837 434 837 434 837 424 c 2
 837 391 l 2
 837 381 837 381 828 381 c 2
 737 381 l 1
 737 346 l 1
 828 346 l 2
 837 346 837 346 837 337 c 2
 837 303 l 2
 837 294 837 294 828 294 c 2
 694 294 l 1
 694 294 l 1
 690 294 690 294 687 297 c 1
 687 297 l 1
 687 297 l 1
 685 301 685 301 685 303 c 1
 685 303 l 1
 685 512 l 1
 685 512 l 1
 685 516 685 516 687 518 c 1
 687 518 l 1
 687 518 l 1
 690 521 690 521 694 521 c 1
 694 521 l 1
 828 521 l 2
 837 521 837 521 837 512 c 2
 837 478 l 2
EndSplineSet
Validated: 37
EndChar

StartChar: surfingbird
Encoding: 21 59412 21
Width: 1000
Flags: W
LayerCount: 2
Fore
SplineSet
646 511 m 1
 785 667 l 1
 847 667 l 1
 1000 597 l 1
 831 545 l 1
 815 424 l 1
 602 210 l 1
 485 211 l 1
 444 97 l 1
 443 -60 l 1
 291 -17 l 1
 470 302 l 1
 0 566 l 1
 364 518 l 1
 178 760 l 1
 646 511 l 1
EndSplineSet
Validated: 1
EndChar

StartChar: liveinternet
Encoding: 22 59413 22
Width: 1000
Flags: W
LayerCount: 2
Fore
SplineSet
264 750 m 1
 100 750 l 1
 100 -50 l 1
 584 -50 l 1
 584 107 l 1
 264 107 l 1
 264 107 264 750 264 750 c 1
745 429 m 1
 745 -50 l 1
 900 -50 l 1
 900 429 l 1
 745 429 l 1
 745 429 l 1
900 750 m 1
 745 750 l 1
 745 595 l 1
 900 595 l 1
 900 595 900 750 900 750 c 1
EndSplineSet
Validated: 5
EndChar

StartChar: googleplus
Encoding: 23 61653 23
Width: 1285
Flags: W
LayerCount: 2
Fore
SplineSet
802 341 m 0
 802 224 802 224 753 134 c 0
 704 44 704 44 615 -8 c 0
 526 -60 526 -60 409 -59 c 0
 326 -59 326 -59 250 -27 c 0
 174 5 174 5 119 60 c 0
 64 115 64 115 32 191 c 0
 0 267 0 267 0 350 c 0
 0 433 0 433 32 509 c 0
 64 585 64 585 119 640 c 0
 174 695 174 695 250 727 c 0
 326 759 326 759 409 759 c 0
 569 759 569 759 683 652 c 1
 572 545 l 1
 507 608 507 608 409 608 c 0
 340 608 340 608 282 574 c 0
 224 540 224 540 190 480 c 0
 156 420 156 420 156 350 c 0
 156 280 156 280 190 220 c 0
 224 160 224 160 282 126 c 0
 340 92 340 92 409 92 c 0
 455 92 455 92 494 105 c 0
 533 118 533 118 558 137 c 0
 583 156 583 156 602 180 c 0
 621 204 621 204 629 227 c 0
 637 250 637 250 641 268 c 1
 409 268 l 1
 409 409 l 1
 795 409 l 1
 802 373 802 373 802 341 c 0
1286 409 m 1
 1286 291 l 1
 1169 291 l 1
 1169 175 l 1
 1052 175 l 1
 1052 291 l 1
 935 291 l 1
 935 409 l 1
 1052 409 l 1
 1052 525 l 1
 1169 525 l 1
 1169 409 l 1
 1286 409 l 1
EndSplineSet
Validated: 33
EndChar

StartChar: xing
Encoding: 24 61800 24
Width: 785
Flags: W
LayerCount: 2
Fore
SplineSet
333 478 m 1
 328 468 328 468 190 223 c 0
 175 198 175 198 154 198 c 2
 20 198 l 2
 8 198 8 198 3 207 c 0
 -2 216 -2 216 3 227 c 2
 144 477 l 2
 145 477 145 477 144 478 c 2
 54 634 l 2
 47 646 47 646 54 654 c 0
 59 663 59 663 71 663 c 2
 205 663 l 2
 227 663 227 663 242 637 c 2
 333 478 l 1
783 836 m 0
 789 827 789 827 783 815 c 2
 488 294 l 1
 488 294 l 1
 676 -50 l 2
 682 -61 682 -61 676 -70 c 0
 671 -79 671 -79 659 -79 c 2
 525 -79 l 2
 502 -79 502 -79 488 -54 c 2
 299 294 l 1
 309 312 309 312 595 819 c 0
 609 844 609 844 631 844 c 2
 766 844 l 2
 778 844 778 844 783 836 c 0
EndSplineSet
Validated: 5
EndChar

StartChar: weibo
Encoding: 25 61834 25
Width: 1000
Flags: W
LayerCount: 2
Fore
SplineSet
377 134 m 0
 388 153 388 153 383 172 c 0
 378 191 378 191 358 200 c 0
 339 208 339 208 317 200 c 0
 295 192 295 192 284 175 c 0
 271 156 271 156 276 137 c 0
 281 118 281 118 300 108 c 0
 319 98 319 98 342 107 c 0
 365 116 365 116 377 134 c 0
429 201 m 0
 434 208 434 208 431 216 c 0
 428 224 428 224 421 226 c 0
 414 229 414 229 405 226 c 0
 396 223 396 223 393 216 c 0
 384 198 384 198 401 190 c 0
 409 188 409 188 417 191 c 0
 425 194 425 194 429 201 c 0
526 141 m 0
 501 84 501 84 438 58 c 0
 375 32 375 32 313 51 c 0
 253 70 253 70 231 122 c 0
 209 174 209 174 234 226 c 0
 261 278 261 278 319 304 c 0
 377 330 377 330 436 314 c 0
 498 298 498 298 525 248 c 0
 552 198 552 198 526 141 c 0
700 231 m 0
 695 284 695 284 651 325 c 0
 607 366 607 366 534 386 c 0
 461 406 461 406 381 398 c 0
 257 385 257 385 175 319 c 0
 93 253 93 253 101 171 c 0
 106 118 106 118 151 77 c 0
 196 36 196 36 267 16 c 0
 338 -4 338 -4 420 4 c 0
 545 17 545 17 626 83 c 0
 707 149 707 149 700 231 c 0
872 228 m 0
 872 190 872 190 852 151 c 0
 832 112 832 112 791 74 c 0
 750 36 750 36 697 9 c 0
 644 -18 644 -18 571 -38 c 0
 498 -58 498 -58 420 -55 c 0
 342 -52 342 -52 266 -36 c 0
 190 -20 190 -20 132 16 c 0
 74 52 74 52 36 100 c 0
 -2 148 -2 148 0 211 c 0
 0 275 0 275 39 348 c 0
 78 421 78 421 149 492 c 0
 243 586 243 586 340 623 c 0
 437 660 437 660 477 620 c 0
 513 584 513 584 488 503 c 0
 486 495 486 495 488 492 c 0
 490 489 490 489 493 488 c 0
 496 487 496 487 501 488 c 0
 506 489 506 489 509 490 c 2
 512 491 l 1
 590 524 590 524 650 524 c 0
 710 524 710 524 735 490 c 0
 760 455 760 455 735 391 c 0
 734 384 734 384 732 380 c 0
 730 376 730 376 735 373 c 0
 740 370 740 370 742 368 c 0
 744 366 744 366 751 365 c 0
 783 355 783 355 809 339 c 0
 835 323 835 323 853 293 c 0
 871 263 871 263 872 228 c 0
831 577 m 0
 854 550 854 550 861 516 c 0
 868 482 868 482 858 450 c 0
 853 438 853 438 841 432 c 0
 829 426 829 426 816 429 c 0
 804 434 804 434 797 446 c 0
 790 458 790 458 795 471 c 0
 806 506 806 506 782 533 c 0
 758 560 758 560 722 552 c 0
 709 549 709 549 697 557 c 0
 685 565 685 565 683 577 c 0
 680 591 680 591 688 602 c 0
 696 613 696 613 708 616 c 0
 742 623 742 623 775 613 c 0
 808 603 808 603 831 577 c 0
932 668 m 0
 981 614 981 614 995 543 c 0
 1009 472 1009 472 987 409 c 0
 982 394 982 394 968 386 c 0
 954 378 954 378 939 384 c 0
 924 390 924 390 917 403 c 0
 910 416 910 416 914 432 c 0
 930 478 930 478 920 528 c 0
 910 578 910 578 875 616 c 0
 840 655 840 655 792 670 c 0
 744 685 744 685 696 674 c 0
 680 671 680 671 667 680 c 0
 654 689 654 689 650 704 c 0
 646 719 646 719 655 733 c 0
 664 747 664 747 680 749 c 0
 748 764 748 764 816 743 c 0
 884 722 884 722 932 668 c 0
EndSplineSet
Validated: 33
EndChar

StartChar: renren
Encoding: 26 61835 26
Width: 857
Flags: W
LayerCount: 2
Fore
SplineSet
632 -26 m 1
 537 -79 537 -79 427 -79 c 0
 318 -79 318 -79 222 -26 c 1
 299 22 299 22 354 92 c 0
 409 162 409 162 427 241 c 1
 446 161 446 161 501 92 c 0
 556 23 556 23 632 -26 c 1
356 771 m 1
 356 500 l 2
 356 360 356 360 285 244 c 0
 214 128 214 128 101 73 c 1
 0 193 0 193 0 349 c 0
 0 453 0 453 47 544 c 0
 94 635 94 635 175 694 c 0
 256 753 256 753 356 771 c 1
857 349 m 0
 857 193 857 193 756 73 c 1
 642 128 642 128 572 244 c 0
 502 360 502 360 501 500 c 2
 501 771 l 1
 601 754 601 754 683 694 c 0
 765 634 765 634 811 544 c 0
 857 454 857 454 857 349 c 0
EndSplineSet
Validated: 1
EndChar

StartChar: stumbleupon
Encoding: 27 61860 27
Width: 1071
Flags: W
LayerCount: 2
Fore
SplineSet
593 453 m 1
 593 519 l 2
 593 542 593 542 576 559 c 0
 559 576 559 576 536 575 c 0
 513 574 513 574 496 559 c 0
 479 544 479 544 479 519 c 2
 479 177 l 2
 479 79 479 79 409 10 c 0
 339 -59 339 -59 239 -59 c 0
 140 -59 140 -59 70 11 c 0
 0 81 0 81 0 180 c 2
 0 329 l 1
 183 329 l 1
 183 183 l 2
 183 159 183 159 200 142 c 0
 217 125 217 125 240 126 c 0
 263 127 263 127 280 142 c 0
 297 157 297 157 297 183 c 2
 297 529 l 2
 297 624 297 624 368 692 c 0
 439 760 439 760 536 759 c 0
 634 759 634 759 704 691 c 0
 774 623 774 623 775 527 c 2
 775 451 l 1
 666 419 l 1
 593 453 l 1
888 329 m 1
 1071 329 l 1
 1071 180 l 2
 1071 81 1071 81 1001 11 c 0
 931 -59 931 -59 832 -59 c 0
 733 -59 733 -59 663 10 c 0
 593 79 593 79 593 178 c 2
 593 328 l 1
 666 294 l 1
 775 326 l 1
 775 175 l 2
 775 152 775 152 791 135 c 0
 807 118 807 118 832 119 c 0
 857 120 857 120 872 135 c 0
 887 150 887 150 888 175 c 2
 888 329 l 1
EndSplineSet
Validated: 33
EndChar

StartChar: delicious
Encoding: 28 61861 28
Width: 857
Flags: W
LayerCount: 2
Fore
SplineSet
821 82 m 2
 821 350 l 1
 429 350 l 1
 429 743 l 1
 161 743 l 2
 109 743 109 743 72 706 c 0
 35 669 35 669 36 618 c 2
 36 350 l 1
 429 350 l 1
 429 -43 l 1
 696 -43 l 2
 748 -43 748 -43 785 -6 c 0
 822 31 822 31 821 82 c 2
857 618 m 2
 857 82 l 2
 857 16 857 16 810 -31 c 0
 763 -78 763 -78 696 -79 c 2
 161 -79 l 2
 94 -79 94 -79 47 -31 c 0
 0 17 0 17 0 82 c 2
 0 618 l 2
 0 684 0 684 47 731 c 0
 94 778 94 778 161 779 c 2
 696 779 l 2
 763 779 763 779 810 731 c 0
 857 683 857 683 857 618 c 2
EndSplineSet
Validated: 37
EndChar

StartChar: whatsapp
Encoding: 29 62002 29
Width: 857
Flags: W
LayerCount: 2
Fore
SplineSet
550 307 m 0
 557 307 557 307 604 282 c 0
 651 257 651 257 654 252 c 0
 655 250 655 250 655 244 c 0
 655 226 655 226 646 202 c 0
 637 180 637 180 606 165 c 0
 575 150 575 150 549 150 c 0
 517 150 517 150 443 185 c 0
 388 210 388 210 348 251 c 0
 308 292 308 292 266 354 c 0
 225 414 225 414 226 462 c 2
 226 467 l 2
 228 517 228 517 267 555 c 0
 281 567 281 567 296 567 c 0
 300 567 300 567 306 566 c 0
 312 565 312 565 317 565 c 0
 328 565 328 565 332 562 c 0
 336 559 336 559 340 546 c 0
 345 535 345 535 359 497 c 0
 373 459 373 459 373 456 c 0
 373 444 373 444 354 423 c 0
 335 402 335 402 334 397 c 0
 334 394 334 394 337 389 c 0
 356 348 356 348 394 313 c 0
 425 283 425 283 478 256 c 0
 485 252 485 252 491 252 c 0
 499 252 499 252 521 279 c 0
 543 306 543 306 550 307 c 0
436 11 m 0
 507 11 507 11 572 39 c 0
 637 67 637 67 684 113 c 0
 731 159 731 159 759 225 c 0
 787 291 787 291 787 361 c 0
 787 431 787 431 759 497 c 0
 731 563 731 563 684 609 c 0
 637 655 637 655 572 684 c 0
 507 713 507 713 436 712 c 0
 365 711 365 711 301 684 c 0
 237 657 237 657 189 609 c 0
 141 561 141 561 114 497 c 0
 87 433 87 433 86 361 c 0
 86 248 86 248 153 156 c 1
 109 26 l 1
 244 69 l 1
 332 11 332 11 436 11 c 0
436 782 m 0
 522 782 522 782 600 748 c 0
 678 714 678 714 734 659 c 0
 790 604 790 604 824 524 c 0
 858 444 858 444 857 361 c 0
 856 278 856 278 824 198 c 0
 792 118 792 118 734 64 c 0
 676 10 676 10 600 -26 c 0
 524 -62 524 -62 436 -60 c 0
 328 -60 328 -60 233 -7 c 1
 0 -82 l 1
 76 144 l 1
 16 243 16 243 16 361 c 0
 16 447 16 447 49 524 c 0
 82 601 82 601 139 659 c 0
 196 717 196 717 273 748 c 0
 350 779 350 779 436 782 c 0
EndSplineSet
Validated: 33
EndChar

StartChar: odnoklassniki
Encoding: 30 62051 30
Width: 714
Flags: W
LayerCount: 2
Fore
SplineSet
357 344 m 0
 252 344 252 344 178 418 c 0
 104 492 104 492 104 597 c 0
 104 702 104 702 178 776 c 0
 252 850 252 850 357 850 c 0
 462 850 462 850 536 776 c 0
 610 702 610 702 611 597 c 0
 611 492 611 492 536 418 c 0
 461 344 461 344 357 344 c 0
357 722 m 0
 306 722 306 722 269 685 c 0
 232 648 232 648 233 597 c 0
 233 545 233 545 269 509 c 0
 305 473 305 473 357 472 c 0
 409 471 409 471 445 509 c 0
 481 547 481 547 482 597 c 0
 482 649 482 649 445 685 c 0
 408 721 408 721 357 722 c 0
649 313 m 0
 656 298 656 298 657 286 c 0
 658 274 658 274 655 263 c 0
 652 252 652 252 640 242 c 0
 628 232 628 232 616 221 c 0
 604 210 604 210 582 198 c 0
 518 157 518 157 406 145 c 1
 447 105 l 1
 596 -44 l 2
 613 -61 613 -61 613 -85 c 0
 613 -109 613 -109 596 -126 c 2
 589 -133 l 2
 572 -150 572 -150 548 -150 c 0
 524 -150 524 -150 507 -133 c 0
 469 -95 469 -95 358 16 c 1
 209 -133 l 2
 191 -150 191 -150 167 -150 c 0
 143 -150 143 -150 127 -133 c 2
 120 -126 l 2
 103 -109 103 -109 103 -85 c 0
 103 -61 103 -61 120 -44 c 2
 269 105 l 1
 309 145 l 1
 196 157 196 157 132 198 c 0
 111 212 111 212 98 221 c 0
 85 230 85 230 74 242 c 0
 63 254 63 254 59 263 c 0
 55 272 55 272 57 286 c 0
 59 300 59 300 65 313 c 0
 71 324 71 324 81 333 c 0
 91 342 91 342 104 345 c 0
 117 348 117 348 136 344 c 0
 155 340 155 340 172 324 c 0
 175 322 175 322 180 318 c 0
 185 314 185 314 204 305 c 0
 223 296 223 296 243 288 c 0
 263 280 263 280 294 274 c 0
 325 268 325 268 357 268 c 0
 408 268 408 268 454 282 c 0
 500 296 500 296 521 310 c 2
 542 324 l 2
 561 339 561 339 579 344 c 0
 597 349 597 349 610 345 c 0
 623 341 623 341 633 333 c 0
 643 325 643 325 649 313 c 0
EndSplineSet
Validated: 33
EndChar

StartChar: telegram
Encoding: 31 62150 31
Width: 1000
Flags: W
LayerCount: 2
Fore
SplineSet
664 121 m 2
 746 507 l 2
 751 532 751 532 740 543 c 0
 729 554 729 554 711 546 c 2
 229 361 l 2
 213 355 213 355 207 347 c 0
 201 339 201 339 205 332 c 0
 209 325 209 325 223 321 c 2
 347 283 l 1
 633 463 l 2
 645 471 645 471 651 466 c 0
 655 463 655 463 648 458 c 2
 417 248 l 1
 408 121 l 1
 421 121 421 121 433 134 c 2
 493 192 l 1
 618 99 l 1
 654 79 654 79 664 121 c 2
1000 350 m 0
 1000 248 1000 248 960 156 c 0
 920 64 920 64 854 -4 c 0
 788 -72 788 -72 694 -110 c 0
 600 -148 600 -148 500 -150 c 0
 400 -152 400 -152 306 -110 c 0
 212 -68 212 -68 146 -4 c 0
 80 60 80 60 40 156 c 0
 0 252 0 252 0 350 c 0
 0 448 0 448 40 544 c 0
 80 640 80 640 146 704 c 0
 212 768 212 768 306 810 c 0
 400 852 400 852 500 850 c 0
 600 848 600 848 694 810 c 0
 788 772 788 772 854 704 c 0
 920 636 920 636 960 544 c 0
 1000 452 1000 452 1000 350 c 0
EndSplineSet
Validated: 33
EndChar

StartChar: x
Encoding: 32 62152 32
Width: 1000
VWidth: 800
Flags: W
LayerCount: 2
Fore
SplineSet
760.780273438 -110 m 1,0,-1
 899.940429688 -110 l 1,1,-1
 595.990234375 237.3203125 l 1,2,-1
 953.559570312 710 l 1,3,-1
 673.66015625 710 l 1,4,-1
 454.26953125 423.389648438 l 1,5,-1
 203.540039062 710 l 1,6,-1
 64.1796875 710 l 1,7,-1
 389.219726562 338.440429688 l 1,8,-1
 46.4404296875 -110 l 1,9,-1
 333.440429688 -110 l 1,10,-1
 531.540039062 151.969726562 l 1,11,-1
 760.790039062 -110 l 1,12,-1
 760.780273438 -110 l 1,0,-1
711.900390625 626.8203125 m 1,13,-1
 788.969726562 626.8203125 l 1,14,-1
 291.450195312 -31.150390625 l 1,15,-1
 208.66015625 -31.150390625 l 1,16,-1
 711.900390625 626.8203125 l 1,13,-1
EndSplineSet
Validated: 524293
EndChar
